<svg preserveAspectRatio="none" width="100%" height="100%" overflow="visible" style="display: block;" viewBox="0 0 19.9976 17.3401" fill="none" xmlns="http://www.w3.org/2000/svg">
<g id="Layer_x0020_1">
<path id="Vector" fill-rule="evenodd" clip-rule="evenodd" d="M8.67001 17.3401C3.88764 17.3401 0 13.4524 0 8.67006C0 3.88768 3.88764 0 8.67001 0C10.863 0 12.921 0.796508 14.5243 2.26625C13.991 2.58159 13.4764 2.9309 12.9814 3.30899C11.7665 2.3289 10.2559 1.78928 8.67001 1.78928C4.87991 1.78928 1.78928 4.87995 1.78928 8.67006C1.78928 12.4602 4.87991 15.5508 8.67001 15.5508C13.9436 15.5508 17.0745 9.91377 14.8063 5.5309C15.1501 5.21121 15.5039 4.90136 15.8671 4.60184C15.9743 4.51339 16.0825 4.42578 16.1914 4.33904C16.9502 5.64956 17.3402 7.13545 17.3402 8.67001C17.3401 13.4524 13.4524 17.3401 8.67001 17.3401Z" fill="var(--fill-0, #10B981)"/>
<path id="Vector_2" fill-rule="evenodd" clip-rule="evenodd" d="M8.89816 13.1274C8.80058 13.1274 8.71924 13.0624 8.68671 12.981C8.67047 12.9485 7.27151 9.33732 5.10806 7.97093C4.68512 7.71067 4.35985 7.43413 4.48996 6.81598C4.62007 6.21413 5.02676 5.87253 5.75873 5.70985C7.06002 5.43331 8.45894 7.45037 8.9795 8.28C10.8013 5.62856 14.445 1.46428 19.7479 0.976293C20.0037 0.946304 20.0983 1.3255 19.8618 1.43176C19.7804 1.46428 12.2002 4.92912 9.12585 12.9973C9.07708 13.0786 8.99574 13.1274 8.89816 13.1274Z" fill="var(--fill-0, #10B981)"/>
</g>
</svg>
